<svg class="logo-abbr" width="26" height="28" viewBox="0 0 26 28" fill="none" xmlns="http://www.w3.org/2000/svg">
					<path d="M11.7002 21.3959C11.7002 23.2237 11.7003 25.0515 11.6998 26.8792C11.6998 26.9941 11.7011 27.1096 11.69 27.2236C11.6319 27.8192 11.238 28.0037 10.7265 27.7033C8.84575 26.5987 6.95798 25.5061 5.07503 24.4052C3.78792 23.6527 2.49338 22.912 1.22394 22.1307C0.579454 21.734 0.312351 21.051 0.163525 20.3476C0.0628203 19.8717 0.0276414 19.3743 0.0253859 18.8863C0.0101364 15.5859 0.0103542 12.2855 0.00929385 8.985C0.00919286 8.66909 -0.0766978 8.30189 0.275725 8.11069C0.630101 7.91842 0.929739 8.12665 1.23296 8.30542C2.93186 9.3071 4.63512 10.3014 6.33822 11.296C7.31084 11.8639 8.29053 12.42 9.25834 12.996C9.80354 13.3204 10.3391 13.6626 10.8644 14.0184C11.4737 14.4311 11.6866 15.0552 11.6898 15.7559C11.6986 17.6359 11.6928 19.5159 11.6928 21.3959C11.6953 21.3959 11.6977 21.3959 11.7002 21.3959Z" fill="#633dfe"></path>
					<path d="M25.6234 14.1081C25.6234 15.8518 25.6489 17.5959 25.6156 19.339C25.5869 20.8431 24.8493 21.948 23.5512 22.6911C21.5313 23.8474 19.5128 25.0063 17.4936 26.1639C16.5156 26.7246 15.5389 27.2875 14.5586 27.8441C13.9628 28.1824 13.5041 27.9622 13.4197 27.2792C13.3803 26.961 13.4109 26.634 13.4119 26.311C13.4145 25.4651 13.4294 24.619 13.4182 23.7733C13.4078 22.9958 13.6852 22.4268 14.3983 22.033C16.0336 21.1302 17.6448 20.1835 19.2623 19.2487C19.4781 19.124 19.6826 18.9756 19.8769 18.8191C20.2235 18.54 20.3805 18.1727 20.3793 17.7227C20.3745 15.9264 20.3797 14.1301 20.3817 12.3338C20.3819 12.1354 20.3807 11.9368 20.3884 11.7386C20.4163 11.0208 20.6844 10.4784 21.3657 10.1224C22.4846 9.53765 23.5697 8.88831 24.6699 8.26757C24.7787 8.20614 24.8888 8.14344 25.0052 8.09943C25.3152 7.98221 25.6025 8.14336 25.664 8.46987C25.685 8.58149 25.6816 8.69855 25.6817 8.81313C25.6827 10.5781 25.6824 12.3431 25.6824 14.1081C25.6627 14.1081 25.643 14.1081 25.6234 14.1081Z" fill="#633dfe"></path>
					<path opacity="0.25" d="M13.0025 0.00151014C13.6015 -0.0206893 14.3033 0.203206 14.9535 0.5845C17.818 2.26445 20.6791 3.95014 23.5378 5.63994C24.0618 5.94965 24.0537 6.41092 23.51 6.75576C23.0519 7.04624 22.5688 7.29727 22.0946 7.56196C21.4017 7.94876 20.7065 8.3315 20.013 8.71724C19.5444 8.97789 19.0627 8.90335 18.6276 8.68374C17.9487 8.34107 17.293 7.9496 16.6421 7.55476C15.7407 7.00802 14.8647 6.41887 13.9557 5.88576C13.2056 5.4459 12.4158 5.38203 11.6376 5.84507C10.0582 6.78481 8.475 7.7186 6.90802 8.67869C6.41784 8.97902 5.94894 8.95078 5.48663 8.70423C4.69462 8.28187 3.92316 7.82111 3.14122 7.37973C2.8413 7.21044 2.53328 7.05538 2.23429 6.8845C1.57183 6.50588 1.57494 5.89202 2.24741 5.50149C2.85227 5.15022 3.47365 4.82718 4.07555 4.47108C6.16937 3.23232 8.26168 1.99089 10.3465 0.737018C11.1171 0.273524 11.933 0.00235166 13.0025 0.00151014Z" fill="#fff"></path>
					<path d="M18.4755 14.8425C18.4755 15.4478 18.4624 16.0534 18.4797 16.6581C18.4935 17.1406 18.3341 17.5065 17.906 17.7543C17.2026 18.1614 16.5074 18.5826 15.8064 18.994C15.2034 19.3479 14.5989 19.6994 13.9906 20.0441C13.8922 20.0998 13.7122 20.1753 13.6708 20.1358C13.563 20.033 13.4529 19.8737 13.4475 19.7329C13.4253 19.1596 13.442 18.5848 13.4446 18.0105C13.4476 17.3213 13.4291 16.6311 13.4631 15.9435C13.4798 15.606 13.5635 15.2632 13.6715 14.9411C13.8103 14.5273 14.1343 14.276 14.5186 14.0677C15.6558 13.451 16.7777 12.8059 17.9065 12.1736C18.2088 12.0043 18.2956 12.0272 18.4123 12.3535C18.4777 12.5364 18.5167 12.7378 18.5207 12.9319C18.5339 13.5685 18.5257 14.2056 18.5257 14.8425C18.509 14.8425 18.4922 14.8425 18.4755 14.8425Z" fill="#fff"></path>
					<path opacity="0.5" d="M12.5674 12.7909C12.1932 12.6002 11.7695 12.4066 11.3678 12.1749C10.4726 11.6588 9.58824 11.1239 8.69971 10.5963C8.32295 10.3725 8.31599 10.1117 8.69513 9.8961C9.90225 9.2096 11.1172 8.53687 12.3211 7.84468C12.6573 7.65137 12.9366 7.65727 13.2766 7.86121C14.3867 8.52682 15.5168 9.15874 16.6378 9.80604C17.0913 10.0679 17.1041 10.4204 16.6413 10.6788C15.4656 11.3356 14.2789 11.973 13.093 12.6113C12.9587 12.6836 12.8013 12.7126 12.5674 12.7909Z" fill="#fff"></path>
				</svg>